<?xml version="1.0" encoding="UTF-8"?>
<svg id="Layer_2" data-name="Layer 2" xmlns="http://www.w3.org/2000/svg" viewBox="0 0 281.51 252.65">
  <defs>
    <style>
      .cls-1 {
        fill: #fff;
        fill-rule: evenodd;
      }
    </style>
  </defs>
  <g id="Layer_1-2" data-name="Layer 1">
    <path class="cls-1" d="M120,69.55c-.07,21.53-.14,43.05-.2,64.58.93-.38,1.28-1.73,1.63-2.83,1.65-5.19,4.25-3.1,6.89-1.12,2.9,2.18,7.85,4.69,11.35,5.1.36.04.73.06,1.08.07.36,0,.72-.03,1.08-.07,3.5-.4,8.45-2.92,11.35-5.1,2.65-1.99,5.24-4.07,6.9,1.12.35,1.1.7,2.44,1.63,2.83-.06-21.53-.13-43.05-.2-64.58l-15.33,17.68c-2.87,3.61-4.18,5.32-5.43,5.38-1.25-.06-2.56-1.78-5.43-5.38l-15.33-17.68ZM189.11,10.33s-29.82,36.55-41.4,50.52c-1.35,1.63-2.45,2.96-3.23,3.91-1.48,1.74-2.51,3.03-3.71,3.01-1.21.01-2.24-1.27-3.71-3.01-.78-.95-1.89-2.28-3.24-3.91-11.58-13.98-41.41-50.52-41.41-50.52,2.53-.23,5.94.93,7.98,1.83,4.31,1.9,7.54,4.12,12.28,1.03,30.92-17.59,25.29-17.59,56.2,0,4.74,3.09,7.96.88,12.27-1.03,2.04-.9,5.44-2.06,7.98-1.83ZM201.59,40.21l-.02,49c0,7.29.05,12.42-7.15,16.61-3.54,1.99-7.62,4.51-11.39,6.51-4.97,2.62-4.76-1.35-4.85-5.06-.27-12.22-.23-39.34-.25-45.97,0-2.69-.06-5.63-.07-8.62-.32-2.44.11-3.95,1.02-5.32,1.64-2.5,6.41-8.98,10.83-13.45,7.81-7.9,11.89-4.18,11.88,6.3ZM79.92,40.21l.02,49c0,7.29-.05,12.42,7.15,16.61,3.54,1.99,7.62,4.51,11.39,6.51,4.96,2.62,4.76-1.35,4.85-5.06.27-12.22.23-39.34.25-45.97,0-2.69.06-5.63.08-8.62.32-2.44-.12-3.95-1.02-5.32-1.64-2.5-6.41-8.98-10.83-13.45-7.81-7.9-11.88-4.18-11.88,6.3Z"/>
    <path class="cls-1" d="M240.06,216.12h-6l-4.78-36.59-4.78,36.59h-6l8.05-53.14h2.96c2.28,0,2.66,1.44,2.89,2.89l7.67,50.26ZM199.51,162.98h-21.71c-.91,0-1.67.76-1.67,1.67v3.72h7.67v46.61c0,.38.23,1.14,1.52,1.14h3.87v-46.46c.08-.68.61-1.29,1.37-1.29h4.25c1.75,0,2.58-.76,2.89-1.44l1.82-3.95ZM155.79,216.12h-6l-4.78-36.59-4.78,36.59h-6l8.05-53.14h2.96c2.28,0,2.66,1.44,2.88,2.89l7.67,50.26ZM97.78,188.11v-20.04h2.89c1.44,0,2.81.76,2.81,2.73v14.27c0,2.43-1.37,3.04-2.81,3.04h-2.89ZM108.94,216.12v-20.34s.15-3.95-1.97-5.01c2.2-.53,1.97-4.71,1.97-4.71v-16.4c0-3.72-3.04-6.68-6.68-6.68h-9.95v53.14h5.47v-22.85h2.89c1.44,0,2.81.83,2.81,3.42v19.44h5.47ZM67.72,216.12h-6l-4.78-36.59-4.78,36.59h-6l8.05-53.14h2.96c2.28,0,2.66,1.44,2.89,2.89l7.67,50.26ZM23.84,162.98h-3.34c-1.97,0-2.35,1.67-2.43,1.9l-6,30.59-6.3-30.52s-.3-1.97-2.43-1.97H0v53.14h5.39v-27.41l3.19,13.89c.3,1.14.91,4.33,4.1,4.33h1.67l4.1-18.22v27.41h5.39v-53.14ZM275.65,216.58v4.26h-4.59v-4.2c-3.55-.25-6.32-3.17-6.4-6.74v-5.47c0-1.75.84-2.58,1.52-2.96.46-.15,2.66-1.14,4.02-1.75v9.26c0,1.59,1.29,2.88,2.89,2.88s2.88-1.29,2.88-2.96v-6.07c0-3.11-2.35-7.21-2.35-7.21l-6.53-12.22c-2.66-4.86-2.43-8.43-2.43-8.43v-5.47c0-3.72,3.04-7.06,6.83-7.06h3.42c3.65.08,6.61,3.42,6.61,7.06v2.05c0,1.75-.83,2.58-1.52,2.96-.46.23-2.58,1.21-4.02,1.82v-6.15c0-1.67-1.29-2.96-2.88-2.96s-2.89,1.29-2.89,2.96v5.09c0,3.11,2.35,7.14,2.35,7.14l6.53,12.3c2.66,4.86,2.43,8.43,2.43,8.43v6.76c0,3.4-2.53,6.22-5.86,6.69Z"/>
    <path class="cls-1" d="M226.75,250h-2.03l-1.62-12.4-1.62,12.4h-2.03l2.73-18.01h1c.77,0,.9.49.98.98l2.6,17.03Z"/>
    <path class="cls-1" d="M218.27,231.99h-1.13c-.67,0-.8.57-.82.64l-2.03,10.37-2.13-10.34s-.1-.67-.82-.67h-1.13v18.01h1.83v-9.29l1.08,4.71c.1.39.31,1.47,1.39,1.47h.57l1.39-6.17v9.29h1.83v-18.01Z"/>
    <path class="cls-1" d="M208.82,250h-2.03l-1.62-12.4-1.62,12.4h-2.03l2.73-18.01h1c.77,0,.9.49.98.98l2.6,17.03Z"/>
    <path class="cls-1" d="M192.98,231.99h-1.85v15.56c0,.54-.44.98-.98.98h-.28c-.54,0-.95-.44-.95-.98v-15.56h-1.31c-.28,0-.51.23-.54.51v15.38c0,1.26,1.03,2.21,2.29,2.21h1.42v-.03c1.21-.02,2.21-.95,2.21-2.19v-15.9Z"/>
    <path class="cls-1" d="M184.66,234.1c0-1.23-1-2.24-2.24-2.29h-1.13c-1.26,0-2.29,1.03-2.29,2.29v13.79c0,1.26,1.03,2.29,2.29,2.29h1.13c1.23-.05,2.24-1.05,2.24-2.29v-6.56c0-.69-.33-1-.9-1h-2.31l.62,1.29s.26.59.67.59h.08v5.38c0,.54-.44.98-.98.98s-.98-.44-.98-.98v-13.17c0-.54.44-.98.98-.98s.98.44.98.98v4.11c.49-.2,1.21-.54,1.34-.62.26-.13.51-.39.51-1v-2.8Z"/>
    <path class="cls-1" d="M177.79,231.99h-1.36s-.51.02-.59.62l-1.18,6.82-1.18-6.82c-.08-.59-.54-.62-.59-.62h-1.36l2.21,10.52v6.95c.03.31.26.54.54.54h1.31v-7.49l2.21-10.52Z"/>
    <path class="cls-1" d="M169.69,231.99h-1.85v15.56c0,.54-.44.98-.98.98h-.28c-.54,0-.95-.44-.95-.98v-15.56h-1.31c-.28,0-.51.23-.54.51v15.38c0,1.26,1.03,2.21,2.29,2.21h1.41v-.03c1.21-.02,2.21-.95,2.21-2.19v-15.9Z"/>
    <path class="cls-1" d="M60.88,235.36h-1.85v14.25c0,.13.1.39.54.39h1.31v-14.64ZM69.14,237.74c.23-.13.5-.4.5-.98v-2.68c0-1.2-.98-2.18-2.18-2.23h-1.1c-1.23,0-2.23,1-2.23,2.23v13.44c0,1.23,1,2.23,2.23,2.23h.05v.88h.12c.38,0,.7.33.7.73.02.45-.33.7-.6.73-.28.02-.33.35-.33.35l-.02.2s1.96.18,1.96-1.38c0-.68-.35-1.13-.98-1.28v-.23h.2c1.2-.05,2.18-1.03,2.18-2.23v-4.24c-.45.2-1.15.53-1.3.58-.23.13-.5.4-.5.98v2.38c0,.53-.43.95-.95.95s-.95-.43-.95-.95v-12.81c0-.55.43-.98.95-.98s.95.43.95.98v3.91c.45-.2,1.15-.53,1.3-.58ZM59.03,234.15h1.85v-1.44c0-.31-.21-.72-.75-.72h-1.11v2.16ZM110.16,250h-2.03l-1.62-12.4-1.62,12.4h-2.03l2.73-18.01h1c.77,0,.9.49.98.98l2.6,17.03ZM85.36,231.99h-1.13c-.66,0-.81.57-.82.64l-2.03,10.37-2.14-10.34s-.11-.67-.82-.67h-1.13v18.11h1.83v-9.39l1.08,4.71c.09.39.31,1.47,1.39,1.47h.57l1.39-6.17v9.29h1.83v-18.01ZM117.6,250v-6.89s.05-1.34-.67-1.7c.75-.18.67-1.59.67-1.59v-5.56c0-1.26-1.03-2.26-2.26-2.26h-3.37v18.01h1.85v-7.74h.98c.49,0,.95.28.95,1.16v6.59h1.85ZM113.82,240.5v-6.79h.98c.49,0,.95.26.95.93v4.84c0,.82-.46,1.03-.95,1.03h-.98ZM121.71,248.17v-15.61c0-.31-.26-.54-.57-.57h-1.29v18.01h4.42c.59,0,.88-.26,1-.49.08-.15.39-.87.59-1.34h-4.17ZM127.19,231.99v17.62c0,.13.1.39.54.39h1.31v-17.29c0-.31-.21-.72-.75-.72h-1.11ZM137.88,250l-3.11-9.85,2.91-8.1h-1.93l-2.26,6.51v-6.56h-1.23c-.2,0-.59.13-.59.69v17.31h1.83v-8.05l2.47,8.05h1.93ZM101.11,231.99h-1.13c-.67,0-.8.57-.82.64l-2.03,10.37-2.14-10.34s-.1-.67-.82-.67h-1.13v18.01h1.83v-9.29l1.08,4.71c.1.39.31,1.47,1.39,1.47h.57l1.39-6.17v9.29h1.83v-18.01ZM90.25,235.36h-1.85v14.25c0,.13.1.39.54.39h1.31v-14.64ZM88.4,234.15h1.85v-1.44c0-.31-.21-.72-.75-.72h-1.11v2.16Z"/>
    <path class="cls-1" d="M196.67,248.17v-15.61c0-.31-.26-.54-.57-.57h-1.29v18.01h4.42c.59,0,.88-.26,1-.49.08-.15.39-.87.59-1.34h-4.17Z"/>
    <path class="cls-1" d="M150.73,238.76c1.26,0,2.28,1.02,2.28,2.28s-1.02,2.28-2.28,2.28-2.28-1.02-2.28-2.28,1.02-2.28,2.28-2.28"/>
  </g>
</svg>